<?xml version="1.0" standalone="no"?>
<!DOCTYPE svg PUBLIC "-//W3C//DTD SVG 20010904//EN"
 "http://www.w3.org/TR/2001/REC-SVG-20010904/DTD/svg10.dtd">
<svg version="1.0" xmlns="http://www.w3.org/2000/svg"
 width="512.000000pt" height="512.000000pt" viewBox="0 0 512.000000 512.000000"
 preserveAspectRatio="xMidYMid meet">

<g transform="translate(0.000000,512.000000) scale(0.100000,-0.100000)"
fill="#ffffff" stroke="none">
<path d="M1923 5045 c-67 -29 -67 -30 -73 -430 l-5 -360 -425 -5 c-455 -5
-444 -4 -503 -59 -63 -58 -62 -46 -67 -510 l-5 -424 -357 -2 -358 -2 -34 -27
c-77 -58 -67 -180 17 -229 16 -9 120 -13 377 -17 l355 -5 3 -142 3 -143 -348
0 c-383 0 -392 -1 -437 -63 -29 -39 -29 -115 0 -154 45 -62 54 -63 437 -63
l347 0 0 -145 0 -145 -343 0 c-336 0 -344 0 -387 -22 -101 -53 -105 -178 -8
-238 31 -19 51 -20 386 -20 l352 0 0 -415 c0 -453 1 -458 58 -518 60 -63 47
-62 512 -67 l425 -5 5 -361 c5 -344 6 -363 25 -384 46 -51 113 -63 175 -32 68
34 70 45 70 435 l0 347 145 0 145 0 0 -340 c0 -367 2 -381 53 -429 35 -32 109
-39 157 -14 68 35 70 46 70 436 l0 347 145 0 144 0 3 -353 c3 -320 5 -355 21
-380 56 -86 184 -88 235 -4 21 33 22 44 22 386 l0 351 415 0 c353 0 421 2 453
16 47 19 88 58 113 106 18 35 19 64 19 458 l0 420 346 0 c383 0 397 2 436 64
27 44 21 126 -13 162 -48 52 -62 54 -429 54 l-340 0 0 145 0 145 348 0 c389 0
400 2 435 70 25 48 18 122 -14 157 -48 51 -62 53 -429 53 l-341 0 3 143 3 142
350 5 c313 4 353 7 383 23 72 39 83 155 20 213 -45 41 -86 45 -413 39 -137 -2
-271 -1 -297 2 l-48 6 0 414 c0 451 1 442 -59 506 -58 63 -46 62 -511 67
l-425 5 -5 357 c-5 341 -6 358 -26 385 -30 41 -81 65 -127 59 -52 -6 -85 -30
-108 -79 -17 -39 -19 -70 -19 -385 l0 -343 -142 3 -143 3 -5 355 c-3 242 -9
361 -17 375 -28 50 -63 70 -118 70 -62 0 -100 -23 -127 -76 -16 -30 -18 -70
-18 -382 l0 -348 -142 3 -143 3 -5 355 c-6 394 -5 389 -73 430 -37 23 -79 25
-124 5z m1995 -1016 c35 -7 59 -20 83 -45 l34 -35 3 -1382 c2 -1365 2 -1382
-18 -1415 -11 -18 -34 -41 -52 -52 -33 -20 -54 -20 -1409 -20 l-1376 0 -33 22
c-18 13 -41 39 -51 58 -18 33 -19 90 -19 1395 0 1305 1 1362 19 1395 22 42 57
69 102 80 53 12 2659 12 2717 -1z"/>
<path d="M1331 3884 c-61 -31 -95 -77 -111 -149 -7 -34 -10 -417 -8 -1205 l3
-1156 26 -49 c18 -35 39 -59 74 -80 l48 -30 1191 -3 1190 -2 52 25 c63 31 100
81 114 154 14 73 14 2269 0 2342 -14 72 -51 123 -113 154 l-51 25 -1181 0
-1181 0 -53 -26z m411 -91 l3 -67 147 -126 147 -125 0 -82 1 -82 74 -60 74
-61 252 0 251 0 26 30 c48 58 150 32 169 -44 23 -95 -102 -160 -168 -87 l-28
31 -259 0 -260 0 -95 78 -95 77 -1 82 0 81 -150 129 -149 128 -1 83 0 82 30 0
c29 0 29 0 32 -67z m509 -5 l78 -73 1 -87 c0 -85 0 -86 35 -121 39 -39 44 -70
20 -117 -18 -35 -43 -50 -85 -50 -17 0 -40 5 -51 10 -22 13 -49 61 -49 90 0
32 27 78 50 85 18 6 20 15 20 85 0 57 -4 81 -14 87 -8 4 -50 43 -95 86 l-81
77 46 0 c43 0 51 -5 125 -72z m-178 12 c29 -32 35 -76 16 -112 -9 -17 -6 -26
25 -57 l36 -37 0 -120 c0 -119 0 -121 28 -147 28 -27 30 -27 169 -27 l140 0
79 95 79 95 157 0 156 0 41 49 c34 40 41 56 41 91 0 106 140 139 185 43 21
-45 12 -85 -28 -119 -26 -22 -38 -25 -72 -21 -38 6 -42 4 -90 -50 l-50 -55
-158 -6 -158 -5 -76 -88 -76 -89 -174 0 -175 0 -39 43 -38 42 -1 120 0 119
-37 38 c-25 26 -46 38 -64 38 -16 0 -41 11 -56 24 -23 20 -28 32 -28 69 0 98
102 139 168 67z m-472 -480 l59 -40 148 0 147 0 100 -100 c97 -98 101 -100
145 -100 l46 0 257 -259 c141 -142 257 -263 257 -269 0 -6 -9 -17 -20 -25 -20
-14 -35 0 -267 234 l-246 249 -46 0 c-45 0 -48 2 -151 105 l-105 105 -145 0
-145 0 -60 40 -60 40 -127 0 -128 0 0 30 0 30 141 0 142 0 58 -40z m426 -288
c160 -171 169 -178 197 -171 55 16 126 -38 126 -96 0 -33 -32 -77 -66 -91 -42
-17 -69 -11 -106 24 -22 20 -28 35 -28 69 0 41 -5 47 -156 208 l-156 165 -289
0 -289 0 0 30 0 30 243 3 c133 1 268 3 299 5 l56 2 169 -178z m1209 -454 c5
-104 8 -118 24 -118 16 0 18 -11 19 -97 2 -114 8 -160 28 -190 8 -12 12 -31 9
-41 -4 -13 -1 -22 9 -26 11 -4 15 -21 15 -71 0 -37 4 -65 10 -65 6 0 10 -22
10 -50 0 -47 2 -50 25 -50 16 0 25 6 25 16 0 14 1 14 16 0 8 -9 24 -16 35 -16
17 0 19 -7 19 -65 l0 -65 70 0 70 0 0 110 c0 93 2 110 16 110 24 0 44 25 45
57 0 15 4 37 9 48 6 15 9 6 9 -32 1 -46 4 -53 21 -53 11 0 20 -4 20 -10 0 -5
11 -10 25 -10 l25 0 1 -127 c0 -71 3 -122 6 -115 2 6 11 12 19 12 9 0 14 11
14 30 0 19 5 30 14 30 8 0 17 12 19 28 2 15 5 -74 6 -198 1 -216 0 -228 -21
-270 -13 -25 -38 -55 -57 -67 l-34 -23 -1189 0 c-1318 0 -1220 -5 -1275 67
l-28 36 -3 369 -3 368 64 0 c77 0 74 7 84 -177 3 -68 10 -123 14 -123 5 0 9 5
9 10 0 6 18 10 40 10 36 0 40 3 40 25 0 23 4 25 40 25 36 0 40 -2 40 -25 0
-22 4 -25 40 -25 22 0 40 -4 40 -9 0 -5 10 -11 23 -13 22 -3 22 -6 25 -160 2
-152 3 -158 23 -158 48 0 49 5 49 380 l0 352 28 -7 c15 -4 39 -9 53 -11 l25
-5 -3 70 c-1 38 1 72 6 75 9 6 21 -63 21 -117 l0 -29 63 5 c34 3 72 8 85 12
22 7 22 6 22 -72 l0 -79 40 4 c37 4 40 2 40 -22 0 -16 6 -26 15 -26 9 0 15 -9
15 -25 0 -14 5 -25 11 -25 16 0 39 -65 39 -114 0 -25 5 -48 10 -51 6 -4 10
-62 10 -141 0 -89 4 -134 11 -134 6 0 9 15 8 34 -2 19 0 38 4 42 4 4 7 0 7 -9
0 -10 5 -17 10 -17 6 0 10 21 10 48 1 37 3 43 11 30 5 -10 21 -18 33 -18 31 0
38 27 35 152 -1 54 1 102 5 105 3 4 6 21 6 40 l0 33 68 0 c63 0 70 -2 80 -24
11 -25 62 -42 74 -23 5 8 20 8 52 0 49 -11 61 -5 51 26 -3 11 -1 22 5 26 5 3
10 20 10 36 0 47 20 59 94 59 61 0 66 -2 67 -22 1 -15 4 -11 9 12 l7 35 2 -32
c0 -17 6 -35 11 -38 6 -3 10 -50 11 -103 0 -68 3 -90 9 -74 5 12 16 22 25 22
10 0 15 10 15 30 0 23 4 30 20 30 13 0 20 7 20 20 0 19 5 22 40 24 11 1 16 17
18 69 2 49 7 67 17 67 20 0 30 21 14 31 -12 7 -11 14 4 40 9 17 17 39 17 49 0
10 4 20 10 22 5 2 10 51 11 111 1 94 3 107 19 107 14 0 18 13 23 83 4 45 4 92
1 104 -4 13 -3 40 2 60 10 45 10 41 20 -129z m-367 -32 c57 -30 68 -110 22
-157 -85 -85 -224 31 -150 125 36 45 80 56 128 32z"/>
</g>
</svg>
